<?xml version="1.0" encoding="UTF-8" standalone="no"?>
<!-- Created with Inkscape (http://www.inkscape.org/) -->

<svg
   version="1.1"
   id="svg1"
   width="289.65582"
   height="244.31876"
   viewBox="0 0 289.65582 244.31876"
   xmlns="http://www.w3.org/2000/svg"
   xmlns:svg="http://www.w3.org/2000/svg">
  <defs
     id="defs1" />
  <g
     id="g1"
     transform="translate(58.02297,-16.173116)">
    <path
       id="path80"
       style="fill:#ff0000"
       d="m 33.531514,16.173116 -7.46289,12.757812 c -4.10521,7.017244 -9.26039,15.90977 -11.45507,19.759766 C 12.418864,52.54069 3.7982145,67.45146 -4.5446555,81.825459 l -15.1699205,26.134771 6.72852,11.57421 6.7265605,11.57422 1.80664,-2.70898 c 2.10366,-3.15353 5.7792999,-14.39388 5.7792999,-17.67383 v -2.2539 l -4.7402399,2.28515 c -2.60748,1.25669 -4.9209704,2.10442 -5.1406204,1.88477 -0.21965,-0.21965 1.1345804,-2.09875 3.0097604,-4.17578 1.87518,-2.07703 5.64598996,-7.76034 8.3789099,-12.630865 2.7329201,-4.87052 6.4040401,-10.116079 8.1581996,-11.65625 1.75416,-1.540169 3.03585,-2.955227 2.84766,-3.144531 -0.18819,-0.189303 1.50578,-0.474169 3.76562,-0.632813 2.25984,-0.158643 5.48336,-1.133339 7.16407,-2.166015 3.73312,-2.293745 10.55663,-3.723871 10.55663,-2.212891 0,0.580114 -1.25728,1.798725 -2.79492,2.707031 -8.77372,5.182766 -15.20576,28.553114 -11.09961,40.332034 1.88866,5.41778 7.91341,6.91271 11.60547,2.8789 2.48582,-2.7159 3.17428,-4.82553 3.85938,-11.8164 0.28792,-2.93809 1.00825,-5.92613 1.59961,-6.63867 1.37599,-1.65797 4.1397,-1.69282 3.54882,-0.0449 -0.87639,2.44416 1.28371,4.75 4.44922,4.75 6.3118,0 10.52383,-4.26579 25.914067,-26.234379 2.979776,-4.253507 5.924222,-7.741 6.542972,-7.75 2.24335,-0.03259 3.16454,10.77457 1.33007,15.599609 -0.57424,1.510367 -4.02036,6.147887 -7.660152,10.30469 -3.639793,4.1568 -7.499457,9.54834 -8.576177,11.98242 -1.79739,4.06331 -1.86091,5.14001 -0.76757,13.14062 0.88611,6.4843 0.9066,9.77093 0.0781,12.84766 -1.31321,4.87687 -6.26131,10.86368 -10.50977,12.71484 -2.34597,1.02221 -2.56443,1.32507 -0.98047,1.35547 4.01667,0.0771 10.87578,-4.32324 13.18946,-8.46094 1.230166,-2.19999 2.37661,-4.39495 2.546871,-4.87695 0.477077,-1.3506 8.433562,3.01045 16.550783,9.07031 10.06736,7.51573 16.335102,10.28478 23.302732,10.29688 6.83189,0.0119 11.6236,-1.86869 16.89258,-6.62891 l 3.97852,-3.59375 -0.01,2.86524 c -0.0139,4.07892 -4.09805,12.2827 -8.08789,16.24414 -1.87087,1.85756 -5.87735,4.55756 -8.90234,6 -4.78888,2.28353 -6.7283,2.61293 -15.000002,2.55273 -8.11508,-0.0591 -10.3678,-0.4632 -15.44922,-2.78125 -3.27175,-1.49251 -7.503393,-3.89972 -9.404299,-5.34961 l -3.457032,-2.63672 0.677735,4.23829 c 0.759998,4.75277 2.991755,8.68707 5.773437,10.17578 4.141839,2.21664 1.88888,3.17506 -6.390625,2.7207 -8.57327,-0.47048 -13.62739,-2.3102 -20.5,-7.46289 -2.95155,-2.21291 -3.25,-2.26671 -3.25,-0.58594 0,3.6995 5.34574,10.26977 10.20898,12.54688 2.58996,1.21268 4.72745,2.52482 4.75,2.91601 0.0225,0.39119 -2.2908,1.40369 -5.14062,2.25 -9.66504,2.87021 -18.43432,1.57108 -24.33008,-3.60547 l -3.45898,-3.03711 2.58007,5.83399 c 1.41886,3.20829 3.00564,6.62844 3.5254,7.59961 0.88786,1.65899 4.18617,1.74888 54.533204,1.50586 l 53.587892,-0.25782 11.1914,-19.5 c 6.15558,-10.72498 18.02239,-31.35895 26.3711,-45.85351 L 193.32446,107.98367 182.31665,88.837178 C 176.26217,78.306775 164.44502,57.765679 156.05689,43.190694 l -15.25196,-26.5 -53.636727,-0.259766 z M 140.00809,33.190694 c 6.17474,0 6.77807,1.213764 1.7832,3.583984 -4.18884,1.987733 -9.14542,7.686546 -9.97656,11.470703 -0.35091,1.597709 0.24323,5.078085 1.45898,8.53711 2.77322,7.890295 2.60289,9.862971 -1.19726,13.833984 -2.36028,2.466403 -5.49415,4.121587 -11.44727,6.048828 -4.50844,1.459547 -9.3049,3.525338 -10.6582,4.589844 -6.72859,5.292709 -4.56703,-0.817132 3.40234,-9.617188 5.4569,-6.025687 6.08963,-8.791509 3.45313,-15.101562 -0.825,-1.974501 -1.5,-5.346837 -1.5,-7.494141 0,-3.281709 0.70346,-4.607759 4.4082,-8.3125 5.03668,-5.036683 11.767,-7.539062 20.27344,-7.539062 z m -38.60158,7.751953 c 0.21297,-0.06929 0.48591,0.02031 0.83205,0.207031 4.65725,2.512397 10.0267,11.968281 10.0664,17.726563 0.0332,4.811331 -1.62664,8.230252 -6.54492,13.488281 -5.68613,6.078931 -6.497937,8.336777 -5.775397,16.074219 0.542477,5.809282 0.379157,6.55281 -2.08594,9.482422 -2.05135,2.437877 -4.61649,3.771827 -11.00586,5.720707 -4.58219,1.39765 -10.62238,4.11787 -13.423826,6.04492 -8.753883,6.02161 -8.020123,4.20962 2.949219,-7.26953 9.409047,-9.846342 10.643527,-13.349666 8.232427,-23.365238 -2.31115,-9.600299 -1.57227,-11.386442 6.14648,-14.849609 8.17872,-3.669548 9.930057,-6.629094 9.884767,-16.710938 -0.0212,-4.706344 0.0857,-6.340957 0.7246,-6.548828 z m 23.51955,0.248047 c -1.66091,0 -4.58244,6.849941 -4.47852,10.5 l 0.11328,4 0.7832,-4.632813 c 0.43052,-2.548233 1.55501,-5.810737 2.49805,-7.25 0.94304,-1.439261 1.43033,-2.617187 1.08399,-2.617187 z m 15.67773,37.283203 c 0.74733,0.312496 1.7123,1.87976 2.57813,4.570312 2.72944,8.481777 -0.60378,14.593374 -9.21485,16.896485 -2.89931,0.775446 -5.18224,2.147426 -6.22461,3.738286 -2.14202,3.26913 -3.38791,3.1848 -3.53125,-0.23829 -0.27921,-6.667596 1.63702,-9.930021 7.61524,-12.962887 5.26446,-2.670767 7.5,-5.366281 7.5,-9.044922 0,-2.328508 0.53001,-3.27148 1.27734,-2.958984 z m -49.783207,2.4375 c -0.14078,-0.100101 -0.05745,0.333846 0.2207,1.279297 1.14025,3.87576 0.58773,8.882214 -1.30469,11.824219 l -1.7207,2.675781 2.13672,-1.886719 c 3.02148,-2.670603 3.83065,-8.068847 1.79492,-11.96875 -0.62063,-1.18897 -0.98617,-1.823727 -1.12695,-1.923828 z m 37.525397,0.279297 c 5.66234,0 6.40411,1.167976 1.91992,3.02539 -1.68348,0.697322 -4.25361,2.831529 -5.71094,4.742188 -2.26339,2.967452 -2.72867,4.76401 -3.18945,12.330078 -0.48647,7.98787 -0.81138,9.1309 -3.31445,11.63086 l -2.77539,2.77148 H 98.051053 80.826443 l -7.250004,3.64258 c -3.987496,2.00406 -7.25,3.30302 -7.25,2.88672 0,-1.53224 10.154911,-10.19767 13.673824,-11.66796 1.99777,-0.83473 6.96327,-2.15294 11.03321,-2.93165 10.894627,-2.08448 12.085207,-3.03936 15.613287,-12.496092 3.14181,-8.421371 11.72691,-13.933594 21.69922,-13.933594 z m -110.902356,3 c -0.55,0 -1.27727,0.45 -1.61718,1 -0.33992,0.549999 -0.16914,1 0.38086,1 0.54999,0 1.27922,-0.450001 1.61914,-1 0.33991,-0.55 0.16718,-1 -0.38282,-1 z M 116.19754,103.9114 c -0.23535,-0.12479 -0.78263,0.53542 -1.41992,1.7793 -0.84537,1.65 -2.27918,3.5625 -3.18555,4.25 -0.90637,0.6875 -1.1445,1.25 -0.5293,1.25 1.52781,0 5.26541,-4.89401 5.25782,-6.88477 -8.6e-4,-0.22323 -0.0446,-0.35294 -0.12305,-0.39453 z m 13.62891,4.7793 0.30859,4.28124 c 0.21631,2.99667 -0.47297,5.98873 -2.29687,9.97266 -3.24979,7.09846 -4.9674,9.04887 -10.01172,11.36524 -5.9828,2.7473 -10.90209,2.31664 -20.500007,-1.79297 -7.9352,-3.39769 -9.21347,-3.64503 -19.24805,-3.73243 -11.393508,-0.0993 -12.433088,-0.70844 -6.810547,-3.99218 7.669747,-4.47937 19.369867,-5.59384 32.445324,-3.0918 11.61872,2.22329 18.97221,-0.55362 23.81054,-8.99219 z m -87.796886,10.58984 c -0.21211,0.0545 -0.59655,1.23646 -1.26563,3.72265 -1.75214,6.51077 -6.28906,13.30051 -11.23046,16.80079 -4.31722,3.05813 -1.20302,2.29567 3.38281,-0.82813 5.60692,-3.81936 9.4938,-11.42394 9.34375,-18.2793 -0.0211,-0.96249 -0.0853,-1.45329 -0.23047,-1.41601 z m 80.570316,4.5918 c -0.3565,0.0745 -1.21111,0.53016 -2.65625,1.38281 -2.06457,1.21813 -6.31083,2.5421 -9.43554,2.94336 l -5.68164,0.73047 4.78125,0.13086 c 5.25751,0.14415 10.43166,-1.60909 12.65429,-4.28907 0.55248,-0.66617 0.6944,-0.97291 0.33789,-0.89843 z m -46.175784,8.28125 c 5.990697,0.0106 12.807567,1.45363 18.402347,4.02734 8.592537,3.95272 17.005957,4.90536 23.460937,2.6543 2.45353,-0.85562 4.64041,-1.37718 4.85938,-1.15821 0.71688,0.71687 -3.88793,6.46301 -7.20899,8.9961 -1.78691,1.36295 -5.18776,3.16225 -7.55664,3.99804 -2.36887,0.83579 -4.58633,1.47232 -4.92968,1.41602 -6.176497,-1.01275 -7.229687,-1.54262 -15.546887,-7.83789 -3.38246,-2.56017 -9.06019,-5.71525 -12.615233,-7.01172 -8.3343,-3.0394 -9.033374,-3.75573 -4.503906,-4.60547 1.737752,-0.326 3.641772,-0.48205 5.638672,-0.47851 z m 15.402347,9.85156 2.1289,2.19336 c 1.17118,1.20694 3.64618,2.55242 5.5,2.99023 4.196717,0.99109 4.778497,0.99238 7.871107,0.002 1.93764,-0.62053 1.26282,-0.82409 -3,-0.90429 -3.64539,-0.0685 -6.680227,-0.80874 -9.000007,-2.19336 z m -42.267579,23.20508 c -0.13393,-0.001 -0.23243,0.3782 -0.23243,0.96875 0,0.72683 1.81786,3.05117 4.04102,5.16601 5.58875,5.31645 6.09399,4.81846 0.91602,-0.9043 -2.3638,-2.61249 -4.44571,-4.93684 -4.62696,-5.16601 -0.034,-0.043 -0.0667,-0.0641 -0.0977,-0.0644 z m 60.123056,2.31836 c -0.61938,-0.007 -1.77522,0.26869 -2.9668,0.73437 -3.38787,1.32402 -13.797307,1.60446 -17.388677,0.46875 -1.375,-0.43478 -2.18537,-0.45591 -1.80078,-0.0488 0.38458,0.40708 2.18459,1.11643 4,1.57617 5.35646,1.35648 20.429597,-0.77352 18.578127,-2.625 -0.0687,-0.0687 -0.21542,-0.10303 -0.42187,-0.10546 z m -80.679696,9.1621 2.20117,3.20899 c 2.1563,3.1436 6.13832,6.44682 9.12304,7.56836 3.30912,1.24343 3.30912,0.60085 0,-1.37891 -1.92499,-1.15167 -5.26038,-3.73732 -7.4121,-5.74609 z" />
    <path
       id="path79"
       style="fill:#000000;stroke-width:0.442188"
       d="m 106.02862,207.64216 v 1.93457 c 0,1.06401 -0.12436,2.5564 -0.27637,3.31641 -0.16213,0.81068 -0.0936,1.38183 0.16582,1.38183 0.24321,0 0.55414,-0.5598 0.69092,-1.24365 0.13677,-0.68386 0.63714,-1.72336 1.11238,-2.31026 0.74779,-0.92348 1.3168,-1.08971 4.22842,-1.23674 l 3.36477,-0.17014 v 12.15411 c 0,13.3552 0.0881,12.92311 -2.76626,13.60073 -0.89017,0.21132 0.91427,0.34027 4.7561,0.34027 3.84184,0 5.64628,-0.12895 4.75611,-0.34027 -2.85435,-0.67762 -2.76626,-0.24553 -2.76626,-13.60073 v -12.15411 l 3.36391,0.17014 c 3.02659,0.15284 3.47029,0.29283 4.42187,1.39911 0.58175,0.67631 1.05797,1.60476 1.05797,2.06325 0,0.4585 0.19899,0.95689 0.44219,1.1072 0.48795,0.30156 0.60996,-3.74981 0.16323,-5.4168 l -0.26601,-0.99492 h -11.22483 z m -161.429554,0.0182 c -1.861498,0.0112 -2.622036,0.12649 -2.622036,0.35842 0,0.27918 0.585696,0.50782 1.30152,0.50782 2.535022,0 2.678172,0.70983 2.678172,13.27945 0,12.45781 -0.03327,12.62216 -2.67472,13.24403 -1.018564,0.2398 0.532636,0.35929 4.664561,0.35929 4.009042,0 5.666631,-0.12329 4.704288,-0.35065 -2.601798,-0.61469 -2.813494,-1.1246 -2.877673,-6.923 l -0.0579,-5.23801 3.173907,0.15545 c 3.813291,0.18683 6.062425,-0.458 7.99997,-2.29299 2.633354,-2.49397 2.922027,-6.9369 0.627871,-9.66335 -2.108734,-2.50609 -4.217038,-3.07949 -12.304393,-3.34663 -1.983498,-0.0655 -3.496714,-0.0965 -4.613596,-0.0898 z m 7.503372,1.76702 c 1.182155,0.0108 2.561207,0.30774 3.450268,0.84984 3.651916,2.2267 3.903231,8.48477 0.431824,10.75932 -1.145507,0.75057 -5.576434,1.08057 -6.195808,0.46118 -0.546211,-0.5462 -0.333192,-10.98749 0.235778,-11.55646 0.35787,-0.35787 1.158479,-0.52227 2.077938,-0.51388 z m 189.814202,3.24042 c -0.33686,0.004 -0.6685,0.0281 -0.9932,0.0716 -4.6003,0.61718 -8.86017,4.61542 -9.50617,8.9232 -1.13156,7.54579 2.62347,13.52013 8.94912,14.23896 4.13064,0.4694 6.67981,-0.3873 9.30321,-3.12726 4.67898,-4.88689 4.28455,-13.62801 -0.79629,-17.6521 -2.00273,-1.5862 -4.59872,-2.48741 -6.95667,-2.45449 z m -140.1838281,0.013 c -1.93873004,-0.0217 -3.908216,0.56292 -5.894397,1.75407 -8.9110319,5.34412 -6.1831709,20.31314 3.91232096,21.46941 3.98187004,0.45607 6.76699004,-0.48092 9.30321604,-3.12986 4.9395661,-5.15905 4.1215981,-14.41769 -1.608973,-18.21 -1.865208,-1.23434 -3.773445,-1.86188 -5.712167,-1.88362 z m -35.8465599,0.46378 c -0.277489,-1.4e-4 -0.47328,0.0863 -0.47328,0.22973 0,0.19128 0.570701,0.46237 1.268698,0.60196 0.831012,0.16621 1.363162,0.60505 1.541614,1.2713 0.149885,0.5596 0.275418,4.80349 0.278953,9.43102 0.0066,9.04823 -0.227432,10.10623 -2.319758,10.50974 -0.545061,0.10511 1.198236,0.19172 3.873464,0.19172 2.675227,0 4.366601,-0.092 3.758593,-0.20382 -2.032694,-0.37372 -2.210934,-0.83334 -2.210934,-5.70007 v -4.58855 h 5.306246 5.306253 v 4.10232 c 0,4.45097 -0.525804,5.85127 -2.325803,6.1984 -0.545062,0.10512 1.198228,0.19517 3.873462,0.1995 2.675228,0.004 4.272636,-0.1189 3.549584,-0.27377 -2.259498,-0.484 -2.479947,-1.53226 -2.344797,-11.15488 0.131381,-9.3546 0.31899,-10.12627 2.46053,-10.12627 0.61876,0 1.003294,-0.12116 0.855012,-0.26946 -0.358953,-0.35895 -9.163555,-0.47182 -9.1633,-0.11745 1.04e-4,0.15201 0.570701,0.39069 1.2687,0.53027 1.564801,0.31298 1.812611,1.11984 1.820566,5.93672 l 0.0059,3.64805 h -5.306253 -5.306254 v -4.36747 c 0,-4.63171 0.192088,-5.10781 2.210942,-5.47898 0.608007,-0.11178 -0.685394,-0.24537 -2.874217,-0.29709 -2.18883,-0.0518 -4.327912,-0.16121 -4.753522,-0.24269 -0.106401,-0.0205 -0.208051,-0.0302 -0.300545,-0.0302 z m 202.819008,0.0872 c -1.41827,-0.002 -2.5392,0.0478 -2.53913,0.16496 9e-5,0.12473 0.44772,0.42321 0.99492,0.66328 0.63094,0.2768 1.36899,1.38105 2.01748,3.01931 l 1.02256,2.58404 -1.85339,5.25615 c -1.01938,2.89097 -2.02671,5.14872 -2.23857,5.0178 -0.21186,-0.13093 -0.38518,-0.44581 -0.38518,-0.70042 0,-0.25462 -1.01107,-3.31329 -2.24635,-6.79605 -1.23528,-3.48277 -2.18046,-6.78586 -2.1004,-7.341 0.0913,-0.63309 0.55805,-1.1236 1.25144,-1.31533 0.608,-0.16813 0.95622,-0.33435 0.77382,-0.36965 -1.01475,-0.19637 -7.95696,-0.0638 -8.17701,0.15633 -0.14372,0.1437 0.18082,0.26168 0.72114,0.26168 1.22779,0 1.92841,1.545 6.06281,13.36841 1.67816,4.79913 3.22722,8.67043 3.44249,8.60279 0.43012,-0.13516 1.05488,-1.68027 3.57291,-8.84549 0.92453,-2.63078 1.83362,-4.62062 2.02094,-4.42187 0.18733,0.19876 1.38214,3.29603 2.65485,6.88327 1.27271,3.58724 2.48621,6.52227 2.69631,6.52227 0.21009,0 0.38173,-0.0591 0.38173,-0.13127 0,-0.35832 6.30017,-18.4411 6.91955,-19.86044 0.44145,-1.01163 1.1522,-1.78692 1.85166,-2.02008 1.75115,-0.58371 0.6085,-0.7913 -2.80167,-0.50955 -1.70243,0.14066 -2.67223,0.29128 -2.15481,0.33423 2.18528,0.18138 2.1365,0.93603 -0.57778,8.89297 -1.41549,4.14957 -2.67486,7.54551 -2.79821,7.5457 -0.12336,1.9e-4 -1.39193,-3.38257 -2.81894,-7.51633 -2.1272,-6.16198 -2.49471,-7.63563 -2.04254,-8.18047 0.30335,-0.36549 0.95809,-0.66414 1.45525,-0.66414 0.49716,0 0.78832,-0.11591 0.64687,-0.25737 -0.19962,-0.19962 -3.38897,-0.34144 -5.75275,-0.34373 z m -91.029325,0.0251 c -1.783943,0.0147 -3.042795,0.10761 -3.04263,0.24442 2.16e-4,0.1824 0.390885,0.33163 0.868828,0.33163 0.477947,0 1.553427,0.60093 2.389713,1.33521 2.140207,1.87912 7.04186,9.14779 6.630223,9.83176 -0.182499,0.30324 -1.793534,2.37488 -3.580685,4.60411 -2.209124,2.75559 -3.845072,4.34837 -5.110202,4.97461 l -1.861158,0.92065 3.979687,-0.0277 c 2.833631,-0.0197 3.693173,-0.14275 2.984767,-0.4275 -0.547207,-0.21995 -0.994923,-0.77808 -0.994923,-1.2402 0,-0.62343 4.080149,-6.49201 5.542894,-7.97233 0.272351,-0.27562 5.069609,7.3338 5.069609,8.04143 0,0.36804 -0.547207,0.86897 -1.216017,1.11324 -0.949566,0.3468 -0.150211,0.45173 3.648048,0.47846 l 4.864064,0.0337 -1.537292,-0.77297 c -1.102563,-0.55449 -2.5649,-2.28308 -5.171525,-6.1129 l -3.635092,-5.33993 3.268908,-4.16709 c 2.251875,-2.87124 3.783136,-4.39653 4.925381,-4.90467 l 1.658201,-0.73755 -3.667046,-0.14681 c -2.016796,-0.0808 -3.749773,-0.0121 -3.851003,0.15286 -0.101225,0.16501 0.264362,0.364 0.812693,0.44219 0.548329,0.0782 1.06258,0.48604 1.142604,0.90596 0.138683,0.72774 -4.200398,6.89971 -4.886518,6.95064 -0.615087,0.0457 -4.394514,-6.08804 -4.241371,-6.88327 0.08392,-0.43576 0.649012,-0.93061 1.255742,-1.09943 1.446095,-0.40237 1.462974,-0.39963 -4.31392,-0.51559 -0.684064,-0.0137 -1.33733,-0.0179 -1.93198,-0.013 z m -57.0992,0.0156 c -2.961612,-4.4e-4 -5.239378,0.0738 -5.549798,0.19777 -0.570665,0.22792 -0.479376,0.30807 0.375687,0.33165 2.108792,0.0581 2.188483,0.44884 2.188483,10.67814 0,10.1997 -0.0184,10.28863 -2.210938,10.70145 -0.608007,0.11449 2.85579,0.18324 7.696828,0.15287 l 8.801435,-0.0553 0.814416,-2.39662 c 0.447856,-1.31812 0.744529,-2.46565 0.659828,-2.55034 -0.08471,-0.0847 -0.698555,0.63237 -1.364565,1.59342 -0.666005,0.96106 -1.819274,1.95934 -2.563304,2.21872 -1.854685,0.64654 -7.543436,0.60594 -8.208106,-0.0588 -0.344018,-0.34402 -0.53028,-2.13233 -0.53028,-5.08516 v -4.55487 h 3.392409 c 3.610135,0 5.009155,0.63643 5.009155,2.27916 0,0.44872 0.198983,0.81615 0.442187,0.81615 0.260351,0 0.442187,-1.55617 0.442187,-3.7845 0,-2.41053 -0.160549,-3.68565 -0.442187,-3.51159 -0.243204,0.15031 -0.442187,0.63556 -0.442187,1.07784 0,1.45811 -1.24536,1.97644 -4.797564,1.99761 l -3.382907,0.0199 v -4.42187 -4.42188 l 3.919232,-0.12868 c 4.354717,-0.14277 5.802748,0.39677 6.291676,2.3448 0.462872,1.84423 0.852652,1.22939 0.69178,-1.09165 l -0.152002,-2.19194 -7.939514,-0.12955 c -1.091651,-0.0178 -2.154744,-0.0266 -3.141951,-0.0268 z m 17.282456,0.0147 c -1.08557,-0.003 -1.902322,0.0773 -1.986391,0.21419 -0.11209,0.18241 0.282912,0.33165 0.878331,0.33165 0.595418,0 1.501134,0.34821 2.012298,0.77382 0.887899,0.73928 0.930663,1.18727 0.965557,10.04163 0.03299,8.37115 -0.03878,9.32329 -0.743601,9.83867 -0.429192,0.31383 -1.152106,0.57088 -1.606384,0.57088 -0.454272,0 -0.73323,0.14923 -0.620097,0.33164 0.227108,0.36617 7.684889,0.37899 8.050056,0.0137 0.125691,-0.12569 -0.378946,-0.34991 -1.121012,-0.49833 -0.906992,-0.18139 -1.491083,-0.64485 -1.783431,-1.41378 -0.503992,-1.32561 -0.598907,-15.25007 -0.103639,-15.20971 0.182401,0.0148 3.515395,3.98963 7.406641,8.83253 3.891247,4.8429 7.22424,8.81068 7.406642,8.81698 0.182403,0.007 0.335015,-4.41618 0.338549,-9.82745 0.0072,-10.80705 0.225099,-11.94607 2.332715,-12.19039 0.667292,-0.0773 1.129489,-0.27633 1.027737,-0.44217 -0.101752,-0.16586 -2.045502,-0.23211 -4.319098,-0.1477 -3.820718,0.14185 -4.016111,0.19209 -2.589216,0.66329 1.182621,0.39053 1.609709,0.81992 1.826615,1.83611 0.428696,2.00842 0.441157,13.48673 0.01468,13.48673 -0.205091,0 -3.278741,-3.56418 -6.830591,-7.92051 l -6.457491,-7.92052 -2.940719,-0.14941 c -0.404351,-0.0205 -0.796296,-0.031 -1.158151,-0.032 z m 29.474566,0.0354 c -2.18209,0.002 -4.364007,0.0881 -4.532423,0.2565 -0.139788,0.13979 0.16235,0.25391 0.671917,0.25391 2.142775,0 2.316731,0.75994 2.310257,10.09173 -0.0033,4.78588 -0.126155,9.1494 -0.272913,9.69703 -0.16724,0.62405 -0.783901,1.14573 -1.652159,1.39738 -1.0282,0.29802 -0.131347,0.39597 3.478774,0.38088 2.67523,-0.0112 4.366602,-0.11191 3.758595,-0.22369 -2.191659,-0.40294 -2.210939,-0.49577 -2.210939,-10.69628 0,-10.20538 0.08945,-10.64705 2.152212,-10.64705 0.599897,0 0.973006,-0.11777 0.829101,-0.26168 -0.168142,-0.16814 -2.350333,-0.25053 -4.532422,-0.24873 z m 146.745823,0.009 c -2.42598,-0.0287 -4.13807,0.0333 -4.13774,0.17015 4.4e-4,0.1824 0.49134,0.33163 1.09079,0.33163 0.62499,0 1.28516,0.36454 1.54765,0.85502 0.54601,1.02023 0.6202,18.54581 0.082,19.39406 -0.19941,0.31432 -0.94329,0.74495 -1.65217,0.95693 -0.90574,0.27085 0.15733,0.37654 3.57551,0.35668 2.67523,-0.0155 4.33101,-0.10939 3.68,-0.20899 -1.92527,-0.29455 -2.17596,-1.00008 -2.03821,-5.72167 0.12507,-4.28675 0.14421,-4.35624 1.20392,-4.35624 0.86645,0 1.81314,1.01574 4.84248,5.19571 l 3.7655,5.19571 3.11691,-0.0449 c 2.87056,-0.0416 2.99966,-0.0825 1.63747,-0.51819 -0.8135,-0.26018 -2.04679,-1.0415 -2.74122,-1.73592 -1.39212,-1.39212 -6.36148,-8.29354 -6.10858,-8.48361 0.0874,-0.0657 0.78559,-0.36892 1.55198,-0.67365 4.24703,-1.68871 4.90957,-7.19401 1.1616,-9.65386 -0.95519,-0.62691 -2.49891,-0.82107 -7.95073,-0.99923 -0.93029,-0.0304 -1.81857,-0.05 -2.62722,-0.0596 z m -8.11656,0.0596 -8.73321,0.0604 c -4.80326,0.0331 -8.23574,0.1465 -7.62774,0.25218 2.08273,0.36203 2.21129,0.98775 2.20404,10.71614 -0.003,4.99998 -0.16938,9.34817 -0.36878,9.66249 -0.19941,0.31432 -0.94328,0.74495 -1.65216,0.95693 -0.84365,0.25227 1.71425,0.39831 7.40404,0.42319 l 8.69262,0.038 0.89561,-2.65312 c 0.49277,-1.45922 0.72386,-2.65313 0.513,-2.65313 -0.21087,0 -0.49831,0.36307 -0.6391,0.80665 -0.14079,0.44359 -0.86339,1.38876 -1.60552,2.10039 -1.30197,1.24847 -1.49956,1.29375 -5.63271,1.29375 h -4.2837 l -0.12522,-4.97461 -0.12524,-4.97461 h 3.24647 c 3.62067,0 4.5623,0.44462 5.1551,2.43289 0.29746,0.99769 0.39515,0.28547 0.39383,-2.87508 -0.002,-3.26013 -0.0925,-3.88816 -0.40591,-2.80599 -0.4947,1.70788 -2.09694,2.3638 -5.77263,2.3638 h -2.58748 v -4.64296 -4.64297 h 4.20077 c 3.6112,0 4.32491,0.12411 5.08516,0.88437 0.48641,0.4864 0.88438,1.17129 0.88438,1.52174 0,0.35045 0.19898,0.75998 0.44219,0.91029 0.27253,0.16843 0.44219,-0.58518 0.44219,-1.96394 z m -63.93756,0.50697 c 4.67188,-0.0215 7.35636,3.92867 7.32718,10.90095 -0.0203,4.84385 -1.06877,7.29319 -3.965,9.26436 -1.94364,1.32284 -4.68507,1.32233 -6.68204,-7.3e-4 -4.54028,-3.0084 -5.33948,-13.55672 -1.3663,-18.0321 1.37114,-1.54445 1.96802,-1.87664 3.72578,-2.07449 0.32891,-0.037 0.64891,-0.0564 0.96038,-0.0579 z m -141.17702614,0.002 c 0.36263504,-0.0107 0.74354704,4.4e-4 1.14433704,0.0337 2.150456,0.17834 2.669994,0.41455 3.925277,1.7843 2.520819,2.75068 3.454425,7.97933 2.347396,13.14126 -0.526441,2.45472 -2.020333,4.54276 -3.971052,5.55153 -1.231334,0.63674 -3.97346704,0.81093 -5.27516104,0.33509 -1.15358096,-0.42169 -2.70600496,-2.05803 -3.68864396,-3.88814 -0.798309,-1.4868 -0.949964,-2.50884 -0.951736,-6.41172 -0.0022,-3.96643 0.146672,-4.94685 1.023422,-6.72695 1.266576,-2.57157 2.907739,-3.74408 5.44616096,-3.81905 z M 218.73032,214.28187 c 4.58367,0.091 6.94709,6.19163 2.60994,8.83598 -0.84562,0.51558 -2.23025,0.8834 -3.32763,0.88438 l -1.8793,0.002 v -4.63433 c 0,-4.57798 0.0132,-4.63851 1.10806,-4.91329 0.51674,-0.1297 1.01475,-0.18388 1.48893,-0.17446 z m -272.881553,28.10828 c -1.175976,0.007 -2.101794,0.0661 -2.10213,0.19172 -3.01e-4,0.12474 0.446862,0.42322 0.994071,0.66329 0.967825,0.42461 0.998528,0.63898 1.11669,7.89461 0.127144,7.80701 -0.0084,8.46497 -1.811934,8.81612 -0.529544,0.10307 0.827894,0.20167 3.016727,0.21935 3.036251,0.0245 3.72019,-0.0714 2.886306,-0.40418 -0.60114,-0.23991 -1.244656,-0.6754 -1.430198,-0.96728 -0.513765,-0.80823 -0.419494,-13.94681 0.107092,-14.93075 0.251758,-0.47042 0.881582,-0.85501 1.399964,-0.85501 0.518391,0 0.811067,-0.13117 0.650337,-0.29191 -0.213832,-0.21382 -2.866982,-0.3475 -4.826925,-0.33596 z m 204.767393,4.25023 c -3.58479,-0.0491 -6.56141,2.92007 -6.55767,7.05686 0.003,3.02461 1.8833,5.66919 4.64123,6.52572 2.68169,0.83286 5.29828,-0.28822 7.22442,-3.09532 2.22762,-3.24645 0.39553,-8.92811 -3.26891,-10.13749 -0.69047,-0.22787 -1.37522,-0.34069 -2.03907,-0.34977 z m 49.93869,0.12004 c -0.17215,0.0649 -1.39094,2.71076 -2.77144,6.02222 -1.46772,3.52068 -2.98335,6.48936 -3.49518,6.84786 -0.835,0.58483 -0.73652,0.63166 1.29547,0.61924 1.70895,-0.0105 2.02645,-0.11348 1.42501,-0.46379 -0.90361,-0.5263 -0.97147,-1.25835 -0.26081,-2.81807 0.47037,-1.03237 0.74379,-1.1262 3.28185,-1.1262 h 2.76972 l 0.51646,1.56493 c 0.399,1.20897 0.39448,1.71169 -0.0199,2.21093 -0.45925,0.55336 -0.19572,0.64422 1.8387,0.6322 2.11204,-0.0125 2.28712,-0.0818 1.57358,-0.6227 -0.44144,-0.33465 -1.96014,-3.32277 -3.37427,-6.63972 -1.41416,-3.31694 -2.65841,-6.11817 -2.76541,-6.22517 -0.003,-0.003 -0.008,-0.003 -0.0137,-0.002 z m -113.063562,0.19605 c -0.329956,-0.028 -1.033357,1.44836 -3.196357,6.58963 -1.260336,2.99572 -2.698768,5.72913 -3.199815,6.08008 -0.84438,0.59141 -0.751029,0.63602 1.288561,0.62356 1.708962,-0.0105 2.026462,-0.11348 1.42502,-0.46379 -0.903615,-0.5263 -0.971481,-1.25835 -0.26082,-2.81807 0.470377,-1.03237 0.743786,-1.1262 3.281859,-1.1262 h 2.769717 l 0.516462,1.56493 c 0.398994,1.20897 0.394475,1.71169 -0.01986,2.21093 -0.459238,0.55335 -0.195676,0.64369 1.838704,0.6322 1.711407,-0.01 2.175125,-0.13069 1.658204,-0.4327 -0.394652,-0.23057 -1.869109,-3.15917 -3.276677,-6.50844 -1.40757,-3.34928 -2.637622,-6.18316 -2.733444,-6.29773 -0.02738,-0.0326 -0.05741,-0.0515 -0.09155,-0.0544 z m -52.800822,0.0233 c -1.617576,0.008 -2.951408,0.19227 -2.595261,0.54842 0.357575,0.35758 0.53028,2.38159 0.53028,6.20531 0,5.47112 -0.03561,5.68843 -0.994922,6.07403 -0.744989,0.29946 -0.272888,0.39988 1.879297,0.39988 2.152184,0 2.624286,-0.10042 1.879297,-0.39988 -0.877618,-0.35275 -0.994921,-0.71392 -0.994921,-3.06681 0,-3.73644 0.962903,-3.62724 3.758594,0.42751 2.054814,2.9802 2.201758,3.09536 3.941687,3.09358 l 1.806752,-0.002 -1.360245,-0.8291 c -1.630598,-0.99433 -4.786792,-5.15506 -4.393377,-5.79162 0.153214,-0.24791 0.560031,-0.45083 0.904238,-0.45083 0.344204,0 0.944996,-0.61775 1.3352,-1.37233 0.876092,-1.69417 0.271861,-3.55697 -1.400833,-4.3191 -0.777494,-0.35425 -2.678211,-0.52462 -4.295786,-0.51733 z m -41.8618661,0.0182 c -2.9184319,0 -5.3089749,0.14924 -5.3122909,0.33165 -0.0037,0.1824 -0.125167,0.8291 -0.271188,1.43711 l -0.266005,1.10547 0.739287,-0.99493 c 0.5485,-0.73867 1.187556,-0.99492 2.4821219,-0.99492 h 1.743706 v 5.76226 c 0,5.56282 -0.03455,5.77694 -0.994927,6.16298 -0.744988,0.29945 -0.272886,0.39987 1.879296,0.39987 2.15219,0 2.624286,-0.10042 1.879298,-0.39987 -0.960432,-0.38604 -0.99492,-0.60016 -0.99492,-6.16298 v -5.76227 h 1.747161 c 1.197109,0 1.888234,0.2435 2.197116,0.77383 0.385324,0.66156 0.452282,0.59741 0.463781,-0.44219 l 0.01383,-1.21601 z m 21.9729271,0 c -3.470735,0 -4.344033,0.11758 -3.931326,0.53028 0.357575,0.35758 0.53028,2.3816 0.53028,6.20531 0,5.46867 -0.03604,5.68929 -0.994922,6.08267 -0.6758391,0.27724 0.62543,0.37862 4.058278,0.31696 l 5.054067,-0.0907 0.614053,-1.54765 0.61492,-1.54766 -1.153836,1.21602 c -1.006906,1.0615 -1.488448,1.21602 -3.788822,1.21602 h -2.634988 v -2.87423 -2.87421 h 2.224757 c 1.894319,0 2.28504,0.14793 2.625488,0.99492 0.319321,0.79443 0.402922,0.54938 0.414552,-1.21602 0.01126,-1.70868 -0.08782,-2.03514 -0.436144,-1.43711 -0.333197,0.57206 -1.021068,0.77383 -2.639307,0.77383 h -2.189346 v -2.65313 -2.65312 h 2.400076 c 2.350482,0 3.79055,0.71194 3.79055,1.87411 0,0.26636 0.109248,0.37524 0.242686,0.24183 0.13344,-0.13344 0.111436,-0.76413 -0.04837,-1.40084 -0.289403,-1.15305 -0.30793,-1.15729 -4.75265,-1.15729 z m 96.091163,0 c -4.28587,0 -5.30626,0.12049 -5.30626,0.62701 0,0.34492 -0.11086,0.99162 -0.24613,1.43711 -0.18937,0.62368 -0.0747,0.58124 0.49659,-0.18482 0.54685,-0.73316 1.19256,-0.99492 2.45621,-0.99492 h 1.71521 v 5.76226 c 0,5.56282 -0.0344,5.77694 -0.99492,6.16298 -0.74499,0.29945 -0.27289,0.39987 1.8793,0.39987 2.15218,0 2.62428,-0.10042 1.8793,-0.39987 -0.96044,-0.38604 -0.99493,-0.60016 -0.99493,-6.16298 v -5.76227 h 1.7152 c 1.26366,0 1.90937,0.26176 2.45621,0.99492 0.57138,0.76606 0.68599,0.80849 0.49661,0.18482 -0.13528,-0.44549 -0.24615,-1.09219 -0.24615,-1.43711 0,-0.50651 -1.02038,-0.627 -5.30624,-0.627 z m -54.161075,0.007 c -1.720185,0.007 -1.741188,0.0237 -0.670188,0.56482 1.081277,0.54629 1.107856,0.6816 1.228971,6.19322 0.121006,5.50638 0.100824,5.64389 -0.884374,6.03949 -0.777066,0.31201 -0.399632,0.40504 1.645247,0.40504 2.020373,0 2.415843,-0.0953 1.658203,-0.39987 -0.939083,-0.37746 -0.994922,-0.64928 -0.994922,-4.83642 0,-2.43986 0.09326,-4.4357 0.207276,-4.4357 0.114018,0 1.924564,2.13909 4.023735,4.75353 2.09916,2.61442 3.995752,4.82012 4.2146,4.90119 0.224233,0.083 0.398141,-2.65171 0.398141,-6.2649 0,-4.71562 0.146214,-6.4705 0.552734,-6.63454 0.304004,-0.12267 -0.218091,-0.23904 -1.15988,-0.25823 -1.419183,-0.0289 -1.624336,0.071 -1.19874,0.58382 0.330403,0.39813 0.468233,2.06696 0.386048,4.68012 l -0.127819,4.06173 -3.751688,-4.6801 c -3.648661,-4.55145 -3.800601,-4.67953 -5.527344,-4.6732 z m 113.193115,0.006 c -1.7135,3.8e-4 -1.73421,0.0178 -0.66328,0.55879 1.07893,0.54507 1.10868,0.69065 1.23069,6.06885 0.10881,4.79648 0.0261,5.58283 -0.63737,6.06799 -0.64632,0.4726 -0.39654,0.5532 1.64352,0.52942 1.89056,-0.022 2.19298,-0.11414 1.41121,-0.42837 -0.94299,-0.37904 -0.99426,-0.63771 -0.97852,-4.94698 l 0.0164,-4.54624 1.52606,1.76875 c 0.83927,0.97282 2.67259,3.20455 4.07383,4.95906 1.40123,1.75451 2.69699,3.19715 2.87939,3.20587 0.18241,0.009 0.33165,-2.85474 0.33165,-6.36336 0,-5.70368 0.082,-6.40106 0.77383,-6.58185 0.4256,-0.11123 -0.20951,-0.22571 -1.41121,-0.25393 -1.8646,-0.0437 -2.07246,0.0308 -1.41897,0.50869 0.64946,0.47489 0.74636,1.18964 0.63738,4.70256 l -0.12869,4.14207 -3.75859,-4.69566 c -3.64796,-4.55766 -3.81066,-4.69602 -5.52735,-4.69566 z m -206.324552,0.008 c -1.002467,-0.008 -0.902265,0.0737 -0.05438,0.6676 0.926266,0.64877 0.982829,1.00597 0.982829,6.20531 0,5.30755 -0.03769,5.53122 -0.99492,5.91598 -0.757636,0.30454 -0.362166,0.39988 1.658203,0.39988 2.020377,0 2.415845,-0.0953 1.658203,-0.39988 -0.939081,-0.37746 -0.994921,-0.64928 -0.994921,-4.83642 0,-2.43987 0.0776,-4.43569 0.172728,-4.43569 0.09513,0 1.935737,2.19134 4.090232,4.86924 l 3.917511,4.86838 0.107952,-5.42112 c 0.12672,-6.34791 0.290357,-7.27765 1.329157,-7.54914 0.425442,-0.11119 -0.09649,-0.2257 -1.159883,-0.25391 -1.609742,-0.0427 -1.84737,0.0523 -1.419828,0.56742 0.330372,0.39808 0.468224,2.06675 0.386043,4.67838 l -0.127818,4.05914 -3.758593,-4.64988 c -3.441237,-4.25775 -3.888308,-4.65304 -5.294163,-4.67838 -0.18924,-0.003 -0.35511,-0.006 -0.498319,-0.007 z m 166.527672,0.0207 c -1.21602,0.0154 -1.96222,0.12866 -1.6582,0.25133 0.40348,0.1628 0.55273,1.8188 0.55273,6.13362 0,5.16276 -0.0979,5.96795 -0.77383,6.36162 -0.5892,0.34318 -0.14689,0.45353 1.85339,0.46378 2.19682,0.0112 2.50634,-0.0767 1.89225,-0.53891 -1.00682,-0.7578 -1.24762,-11.69127 -0.27119,-12.30957 0.40097,-0.2539 -0.15621,-0.38017 -1.59515,-0.36187 z m 91.09063,0.007 c -1.45921,0.0118 -2.35465,0.1349 -1.98984,0.27377 1.17162,0.446 1.31276,1.13084 1.31966,6.39618 0.007,4.84581 -0.0549,5.21387 -0.97592,5.85898 -0.91448,0.64053 -0.63848,0.68832 3.97364,0.68832 h 4.95647 l 0.66933,-1.60206 c 0.90258,-2.16018 0.8547,-2.22385 -0.47588,-0.64255 -1.04056,1.23664 -1.38271,1.36024 -3.75859,1.36024 h -2.61339 v -5.72881 c 0,-4.98728 0.0999,-5.78428 0.77382,-6.17681 0.58518,-0.34084 0.12702,-0.44547 -1.8793,-0.42923 z m -70.36827,0.45686 c 1.22455,-0.0285 1.70474,0.20433 2.49939,1.0502 0.90164,0.95976 1.11171,1.69565 1.24711,4.37696 0.17597,3.48485 -0.51206,5.57846 -2.11421,6.43591 -1.09136,0.58408 -3.11084,0.56169 -4.15588,-0.0458 -2.18343,-1.2692 -2.82813,-7.50923 -1.04932,-10.15649 0.86358,-1.28521 1.29761,-1.5221 2.99945,-1.63402 0.20837,-0.0137 0.39852,-0.0227 0.57346,-0.0267 z m -114.755454,0.0423 c 1.968398,0.0251 3.336071,2.2937 2.223032,4.28629 -0.473021,0.84681 -1.053552,1.17072 -2.279168,1.27302 l -1.644384,0.13732 v -2.65054 c 0,-2.1992 0.140191,-2.69466 0.825648,-2.91222 0.300267,-0.0953 0.593676,-0.13746 0.874872,-0.13387 z m 163.866764,2.21331 c 0.0591,-0.0613 0.62247,1.08286 1.2523,2.54258 l 1.14519,2.65399 h -2.37417 -2.37502 l 1.12273,-2.54258 c 0.61712,-1.39842 1.1699,-2.59269 1.22897,-2.65399 z m -112.979782,0.19089 c 0.01367,0.003 0.02542,0.009 0.03542,0.0207 0.159864,0.18856 0.711724,1.38754 1.225515,2.66435 l 0.933604,2.32151 H 86.80211 84.427942 l 1.149516,-2.66434 c 0.592761,-1.37381 1.199049,-2.37745 1.40429,-2.34223 z" />
  </g>
</svg>
