<?xml version="1.0" encoding="UTF-8" standalone="no"?>
<!-- Created with Inkscape (http://www.inkscape.org/) -->

<svg
   version="1.1"
   id="svg1"
   width="212.43846"
   height="183.87595"
   viewBox="0 0 212.43846 183.87595"
   sodipodi:docname="logo3.svg"
   inkscape:version="1.3.1 (9b9bdc1480, 2023-11-25, custom)"
   xmlns:inkscape="http://www.inkscape.org/namespaces/inkscape"
   xmlns:sodipodi="http://sodipodi.sourceforge.net/DTD/sodipodi-0.dtd"
   xmlns="http://www.w3.org/2000/svg"
   xmlns:svg="http://www.w3.org/2000/svg">
  <sodipodi:namedview
     id="namedview1"
     pagecolor="#ffffff"
     bordercolor="#000000"
     borderopacity="0.25"
     inkscape:showpageshadow="2"
     inkscape:pageopacity="0.0"
     inkscape:pagecheckerboard="0"
     inkscape:deskcolor="#d1d1d1"
     showguides="false"
     inkscape:zoom="1"
     inkscape:cx="205"
     inkscape:cy="-57"
     inkscape:window-width="1920"
     inkscape:window-height="1016"
     inkscape:window-x="0"
     inkscape:window-y="0"
     inkscape:window-maximized="1"
     inkscape:current-layer="g1" />
  <defs
     id="defs1" />
  <g
     id="g1"
     transform="translate(-223.96412,-38.093511)">
    <path
       style="fill:#fffcfc;fill-opacity:1"
       d="m 276.96967,221.96945 c 35.62053,0 72.47212,-0.19228 106.99079,-0.35835 17.53966,-30.59266 35.14112,-61.14981 52.74241,-91.70704 C 419.20837,99.46617 401.6958,69.038668 384.18334,38.611098 l -107.27341,-0.51758 c -25.6476,43.84457 3.763,-6.42828 -53.24609,91.787102"
       id="path80"
       sodipodi:nodetypes="cccccc" />
    <path
       style="fill:#ffffff;fill-opacity:1;stroke-width:0.0883883"
       d=""
       id="path106"
       transform="translate(-19.714576,16.173116)" />
    <path
       style="fill:#ffffff;fill-opacity:1;stroke-width:0.0110485"
       d=""
       id="path114"
       transform="translate(-19.714576,16.173116)" />
    <path
       style="fill:#ffffff;fill-opacity:1;stroke-width:0.03125"
       d=""
       id="path143"
       transform="translate(-19.714576,16.173116)" />
    <path
       style="fill:#ffffff;fill-opacity:1;stroke-width:0.0441942"
       d=""
       id="path161"
       transform="translate(-19.714576,16.173116)" />
    <path
       style="fill:#ffffff;fill-opacity:1;stroke-width:0.125"
       d=""
       id="path164"
       transform="translate(-19.714576,16.173116)" />
    <path
       id="path179"
       style="fill:#ea3323;fill-opacity:1;stroke-width:0.353553"
       transform="translate(-19.714576,16.173116)"
       d="m 362.95787,156.96073 c -3.13756,-0.82164 -4.56046,-1.61161 -10.11159,-5.61377 -6.88473,-4.96364 -9.90263,-6.63671 -17.2192,-9.54604 -6.6155,-2.63056 -5.90656,-3.20799 3.93863,-3.20799 7.87986,0 10.33242,0.49228 18.318,3.67678 6.89206,2.74843 10.22484,3.51022 15.46867,3.53577 3.81899,0.0186 4.62472,-0.0954 8.069,-1.14197 2.1045,-0.63946 3.98573,-1.10953 4.18052,-1.0446 0.61887,0.20629 -2.4391,4.35158 -4.97468,6.74351 -1.34438,1.26822 -3.53119,2.91527 -4.85958,3.66011 -2.44446,1.37062 -8.53164,3.67859 -9.60781,3.64281 -0.32209,-0.0107 -1.76298,-0.32778 -3.20196,-0.70461 z m 6.84164,-3.74412 c 2.22556,-0.75833 1.64751,-1.03866 -2.81109,-1.36326 -4.17857,-0.30422 -7.01997,-1.12069 -9.82881,-2.82429 -2.70053,-1.63791 -3.18393,-1.57222 -1.46826,0.1995 3.61682,3.73501 9.75691,5.47066 14.10816,3.98805 z m 0.73707,-11.83527 c -2.62893,-0.38279 -4.31793,-0.93272 -10.92087,-3.55586 -7.43433,-2.95342 -8.25827,-3.10781 -18.43669,-3.45486 -4.86136,-0.16576 -9.11726,-0.41426 -9.45755,-0.55223 -1.0324,-0.41859 -0.70396,-1.10746 1.07106,-2.24648 7.71458,-4.95044 18.65192,-6.42585 31.54424,-4.25523 6.79101,1.14337 10.97308,1.24995 14.45704,0.36846 5.26072,-1.33105 8.57711,-3.95743 11.73179,-9.29091 l 1.91866,-3.24379 0.10011,3.74265 c 0.11698,4.37337 -0.32801,6.03807 -3.16962,11.85735 -2.10124,4.30311 -4.40728,6.88524 -7.55529,8.45987 -4.13942,2.07052 -7.51384,2.71982 -11.28288,2.17103 z m 8.17694,-7.15472 c 2.47463,-0.68226 4.85176,-1.90931 5.97979,-3.08673 1.56979,-1.6385 0.8715,-1.87806 -1.62349,-0.55695 -2.94375,1.55872 -6.38256,2.61421 -10.60132,3.25389 -1.84732,0.28011 -3.59741,0.51266 -3.88909,0.51679 -0.4714,0.007 -0.4714,0.0487 0,0.37814 0.71328,0.49851 7.7695,0.14679 10.13411,-0.50514 z m 9.04616,-22.90624 c -0.64965,-0.65566 -0.57227,-6.16012 0.11494,-8.17697 0.79918,-2.34546 2.82635,-4.446822 6.02555,-6.246066 6.32465,-3.557014 7.7842,-5.186141 8.29567,-9.259481 0.17755,-1.414079 0.48411,-2.732339 0.68124,-2.929467 1.00569,-1.005691 3.32534,4.068683 3.75972,8.224629 0.42625,4.078138 -1.27043,7.820675 -4.57474,10.090965 -1.01179,0.69517 -3.25762,1.74223 -4.99073,2.32679 -3.93704,1.32792 -4.52187,1.69129 -6.92516,4.30269 -1.56126,1.69646 -2.03166,2.02502 -2.38649,1.66691 z m -18.6605,-23.550751 c 0.36487,-1.460632 3.66778,-6.186937 7.10342,-10.16466 5.40125,-6.253477 5.94864,-8.300007 3.87718,-14.495689 -1.62941,-4.873554 -2.08051,-9.879496 -1.06917,-11.864867 1.58479,-3.111123 5.99063,-7.109828 10.14354,-9.206214 3.6979,-1.866693 6.92259,-2.521704 12.29345,-2.497091 2.64343,0.01211 5.19244,0.164895 5.66448,0.339513 0.85147,0.314981 0.8472,0.324495 -0.54082,1.205153 -0.76949,0.488215 -2.18867,1.334336 -3.15372,1.880268 -2.26104,1.279071 -6.03378,5.138933 -7.61452,7.790363 -1.14359,1.918179 -1.23659,2.291018 -1.22622,4.916136 0.009,2.348001 0.27839,3.689991 1.55204,7.739368 1.87759,5.969516 1.99807,7.878679 0.64311,10.190751 -1.21299,2.069807 -3.84835,4.439863 -6.49675,5.842717 -1.14047,0.604106 -4.22142,1.846327 -6.84655,2.760492 -5.8455,2.035612 -8.7168,3.316995 -11.51513,5.138877 -2.58853,1.685287 -3.15038,1.770111 -2.81434,0.424883 z m 14.84616,-28.726213 c 0.53823,-3.527478 1.39112,-6.330944 2.76707,-9.095392 0.79613,-1.599514 1.32484,-3.030866 1.17493,-3.180782 -0.48278,-0.482781 -2.5745,2.202274 -3.39186,4.353993 -0.82046,2.159861 -1.3858,5.730953 -1.39411,8.806065 -0.006,2.06666 0.46972,1.56888 0.84397,-0.883884 z M 330.3125,118.68129 c 0,-0.15631 0.44491,-0.91127 0.90076,-1.52849 0.98851,-1.33844 3.1273,-3.7222 7.4832,-8.3403 3.35173,-3.55348 4.71777,-5.10704 6.04516,-6.875 4.06412,-5.413044 4.65452,-8.982711 2.80756,-16.974821 -1.64864,-7.133964 -1.58825,-9.322102 0.31541,-11.428182 0.89884,-0.994413 2.18339,-1.776316 6.01,-3.658262 2.26856,-1.11569 3.89079,-2.000615 4.60973,-2.514598 2.47253,-1.767678 3.8979,-3.952473 4.50911,-6.911562 0.35475,-1.717453 0.46458,-3.28602 0.55664,-7.950075 0.0972,-4.926241 0.12475,-5.147646 0.69899,-5.624217 0.28208,-0.234111 0.98227,0.119733 2.24159,1.132809 3.1222,2.511681 6.51557,8.000434 7.8887,12.759922 0.59119,2.04918 0.76239,3.68615 0.57686,5.516085 -0.40668,4.011426 -1.99723,6.890168 -6.57653,11.902901 -3.97403,4.35018 -5.21409,6.398987 -5.69998,9.417436 -0.19037,1.18267 -0.16036,4.468574 0.0636,6.957564 0.23847,2.650821 0.23997,3.436826 0.009,4.966085 -0.21537,1.428765 -0.51186,2.075675 -1.54104,3.362375 -2.39892,2.99917 -4.38358,4.13334 -10.90434,6.23147 -3.37732,1.08669 -5.96587,2.08476 -8.78263,3.38633 -2.61387,1.20783 -3.82065,1.89036 -6.57067,3.71625 -2.69249,1.78769 -4.64154,2.81912 -4.64154,2.45628 z m 22.02156,-17.49408 c 1.87253,-1.666029 2.72082,-3.015458 3.30014,-5.24971 0.31313,-1.207663 0.31496,-3.905001 0.003,-5.125 -0.36509,-1.429938 -1.88259,-4.420206 -2.12218,-4.18181 -0.0377,0.0375 0.10816,0.74063 0.32412,1.5625 0.37691,1.434365 0.39297,1.597106 0.40041,4.05681 0.007,2.26765 -0.0249,2.691946 -0.27632,3.6875 -0.50778,2.010887 -0.86089,2.803597 -2.09923,4.71261 -0.93425,1.44022 -1.09323,1.72503 -0.96262,1.72447 0.054,-2.3e-4 0.69848,-0.53455 1.43221,-1.18737 z M 331.75,125.26368 c 3.37075,-3.51537 9.5887,-8.03827 12.59143,-9.15893 1.46221,-0.54572 5.4451,-1.6007 8.85086,-2.34441 11.23009,-2.45227 12.34727,-3.21961 15.59881,-10.71417 2.28263,-5.261303 4.32427,-8.241618 7.27781,-10.623868 2.87362,-2.317786 7.4869,-4.309361 11.43109,-4.934855 3.52154,-0.558467 7.75,-0.288141 7.75,0.49546 0,0.231899 -1.18763,1.09189 -2.63918,1.911092 -3.03218,1.711256 -6.12794,4.926513 -7.18937,7.466873 -0.40226,0.96274 -1.06504,5.245708 -1.47285,9.517698 -0.40781,4.272 -0.9831,8.2407 -1.27843,8.81935 -0.29533,0.57864 -1.45753,2.00833 -2.58267,3.17708 L 378.04179,121 h -17.15358 -17.15359 l -5.86731,2.93345 c -8.23362,4.11651 -8.93527,4.26909 -6.11731,1.33023 z m 43.56643,-8.79923 c 1.22831,-0.65737 3.93357,-4.82667 3.93357,-6.06234 0,-1.49675 -0.8334,-1.0238 -2.15491,1.22289 -0.68746,1.16875 -1.83384,2.67047 -2.54751,3.33716 -1.96977,1.84009 -1.51666,2.72545 0.76885,1.50229 z m -39.26956,-0.64759 v -0.21438 l 0.44532,-0.29602 c 2.55843,-1.70072 7.58587,-4.01941 11.81797,-5.45053 0.43098,-0.14574 1.25468,-0.41151 1.83046,-0.59059 4.70933,-1.46475 7.11746,-2.53698 8.92188,-3.97254 1.01029,-0.80376 2.46114,-2.47532 3.15849,-3.63899 0.19354,-0.32294 0.19849,-0.28123 0.0226,0.18994 -0.23534,0.63026 -0.66047,1.37042 -1.09491,1.90625 -0.4668,0.57573 -1.26288,1.27612 -2.0319,1.78764 -1.79298,1.19263 -3.90265,2.14796 -9.42923,4.26987 -2.62044,1.00611 -4.09268,1.61103 -6.23438,2.56159 -2.83088,1.25645 -5.28545,2.4612 -6.86684,3.37039 -0.27911,0.16047 -0.51466,0.29176 -0.52344,0.29176 -0.009,0 -0.016,-0.0965 -0.016,-0.21439 z m -30.48835,82.93584 c -3.28512,-0.24494 -6.24714,-1.04026 -8.86839,-2.38119 -1.95009,-0.9976 -3.2178,-1.92405 -5.6802,-4.15112 l -1.73227,-1.56672 -16.26014,-26.33078 c -8.94308,-14.48193 -16.22054,-26.43399 -16.17213,-26.56014 0.0484,-0.12616 0.47735,-0.80636 0.9532,-1.51156 1.61354,-2.39122 3.08711,-5.75324 4.89473,-11.16759 1.5339,-4.59444 2.05261,-6.96236 1.99196,-9.09335 l -0.0506,-1.77651 -3.27037,1.41478 c -5.05891,2.1885 -6.70423,2.84043 -7.01498,2.77954 -0.31746,-0.0622 0.73702,-1.56272 2.58608,-3.67999 2.2129,-2.53388 5.44078,-7.32529 8.57456,-12.72792 3.61558,-6.233262 6.74772,-10.606323 9.08729,-12.687587 0.68548,-0.609794 1.4969,-1.457643 1.80317,-1.88411 0.62395,-0.868839 0.62987,-0.870765 3.57138,-1.162162 3.01064,-0.298245 4.99113,-0.886654 7.99662,-2.375812 3.75086,-1.858476 6.48243,-2.651746 8.74945,-2.540905 0.95289,0.04659 1.15789,0.111828 1.20998,0.385054 0.0878,0.460788 -0.99461,1.527211 -2.83728,2.795294 -1.88878,1.299817 -3.27616,2.758897 -4.80044,5.048542 -3.47751,5.223636 -6.1853,13.328596 -7.10293,21.260526 -0.36594,3.16318 -0.26975,9.04081 0.18226,11.13693 0.50403,2.33737 1.14361,4.01477 1.94683,5.10587 0.90338,1.22715 1.58545,1.7784 3.01392,2.43586 0.8844,0.40705 1.29403,0.48504 2.5558,0.48662 1.32034,0.002 1.64788,-0.0661 2.70031,-0.55889 1.35223,-0.63312 2.64024,-1.84305 3.6899,-3.46621 1.29603,-2.00413 1.7153,-3.57943 2.36152,-8.8728 0.4928,-4.03667 0.94297,-6.23358 1.50174,-7.32886 0.66432,-1.30218 2.52741,-2.12178 3.33558,-1.46737 0.3748,0.3035 0.38824,0.38038 0.19826,1.13484 -0.412,1.63621 0.37832,3.15364 2.07693,3.98774 0.91119,0.44744 1.20332,0.49986 2.7857,0.49986 3.47143,0 5.63726,-1.14754 9.45776,-5.01106 3.32728,-3.36475 7.39199,-8.54952 13.52321,-17.249649 5.37339,-7.624766 8.55119,-11.592028 9.28529,-11.592028 0.73874,0 1.45082,1.705731 1.87822,4.499156 0.20251,1.323603 0.24738,2.564982 0.17602,4.870009 -0.10798,3.487787 -0.38756,5.049803 -1.18977,6.647124 -0.71608,1.42581 -3.96576,5.736748 -7.16206,9.500978 -4.3754,5.15284 -7.26485,9.18415 -8.63529,12.04778 -1.8523,3.8705 -1.95472,5.46575 -0.86262,13.43503 0.39964,2.91631 0.48584,4.2012 0.49215,7.33623 0.007,3.43437 -0.0308,3.93341 -0.39142,5.17753 -1.1979,4.13281 -4.36649,8.57101 -8.21044,11.50024 -0.36001,0.27434 -1.46833,0.91364 -2.46294,1.42067 -0.99462,0.50704 -1.83875,1.01297 -1.87586,1.1243 -0.11156,0.33469 1.10216,0.4515 2.38169,0.22922 3.24101,-0.56303 7.41963,-3.03765 10.24146,-6.0651 1.05446,-1.1313 2.2875,-3.13028 3.70497,-6.00643 0.79486,-1.61283 0.83515,-1.6247 2.85728,-0.84181 2.58466,1.00067 9.00345,4.94865 13.56191,8.34147 6.596,4.90934 11.9583,8.04977 16.06828,9.41038 5.58606,1.84928 12.31431,1.69436 17.37372,-0.40002 2.73632,-1.13272 5.03472,-2.7381 8.87958,-6.20218 1.30352,-1.17443 2.38445,-2.11468 2.40206,-2.08943 0.0176,0.0252 -0.0235,1.08004 -0.0914,2.344 -0.10629,1.97927 -0.2128,2.56413 -0.76775,4.21572 -1.47169,4.37985 -4.35553,9.17148 -7.25493,12.05438 -3.60974,3.58921 -10.0141,7.18545 -14.50974,8.14765 -1.92854,0.41277 -7.16863,0.59499 -12.05678,0.41926 -6.52575,-0.23459 -8.52534,-0.71608 -13.93214,-3.35476 -3.5686,-1.74159 -6.49547,-3.5057 -9.14757,-5.51352 -1.14208,-0.86463 -2.18402,-1.61331 -2.31542,-1.66373 -0.18897,-0.0725 -0.15198,0.4553 0.17688,2.52437 1.04503,6.57495 2.87306,10.05775 6.33636,12.07216 0.90806,0.52816 1.67938,1.2383 1.67938,1.54615 0,0.13261 -0.29831,0.37627 -0.66291,0.54145 -0.96224,0.43595 -7.99588,0.41674 -11.35791,-0.031 -6.44189,-0.85795 -10.37393,-2.55034 -16.87972,-7.26522 -2.04576,-1.48261 -2.50439,-1.74555 -2.82802,-1.62136 -0.62834,0.24111 -0.44099,2.31823 0.37564,4.16479 0.73647,1.66527 2.38375,3.93466 4.12502,5.68284 2.03051,2.03857 3.30764,2.96229 6.10308,4.41419 2.9264,1.51992 4.03919,2.27016 3.7981,2.56066 -0.54673,0.65876 -4.85867,2.16226 -8.12913,2.83448 -1.11811,0.22982 -2.98752,0.49994 -4.15425,0.60025 -2.08412,0.17921 -2.38046,0.18405 -3.97747,0.065 z m 0.17677,-4.97463 c 0,-0.26214 -0.76033,-0.85727 -2.91681,-2.28305 -3.28676,-2.17308 -5.93516,-4.35399 -9.58497,-7.89302 -0.70205,-0.68075 -1.32137,-1.19281 -1.37626,-1.13792 -0.0549,0.0549 0.51605,1.00518 1.26876,2.11176 1.74061,2.55892 4.82253,5.69299 7.02434,7.1432 2.15854,1.42171 5.58494,2.68494 5.58494,2.05903 z m 15.02602,-13.03552 c 0,-0.45139 -1.39009,-2.15563 -5.46981,-6.70589 -1.48193,-1.65287 -2.80644,-3.03093 -2.94334,-3.06236 -0.18569,-0.0426 -0.24891,0.1454 -0.24891,0.74042 0,0.69907 0.12883,0.96854 1.04315,2.18193 2.04823,2.71821 7.61891,7.72369 7.61891,6.8459 z m 45.60839,-4.75261 c 2.62393,-0.41285 4.70696,-0.92487 5.80183,-1.42612 0.78205,-0.35803 0.93166,-0.4989 0.8843,-0.83261 -0.0884,-0.62311 -1.14093,-0.60972 -3.1506,0.0401 -2.29948,0.7435 -4.21557,1.04747 -7.7106,1.22322 -4.19237,0.21082 -8.19845,-0.0554 -10.31945,-0.6859 -0.78084,-0.23209 -1.76894,-0.23755 -1.76894,-0.01 0,0.39028 3.10816,1.62677 4.90683,1.95204 1.38687,0.2508 9.2529,0.0701 11.35663,-0.26094 z m -74.77654,-28.7933 c 1.36249,-0.56546 4.1034,-2.2683 5.55576,-3.45161 3.6864,-3.00349 6.86558,-8.61312 7.67871,-13.54899 0.45415,-2.75678 0.43523,-5.31595 -0.0382,-5.16979 -0.11175,0.0345 -0.42653,0.77429 -0.69953,1.64398 -1.42436,4.53766 -1.82195,5.63228 -2.70053,7.43491 -1.72552,3.54033 -4.56532,7.4128 -7.14559,9.74402 -0.4381,0.39581 -1.51113,1.26541 -2.38451,1.93244 -2.16403,1.65274 -2.27621,2.24927 -0.2661,1.41504 z M 279.57324,91.923881 c 0.0818,0 0.39351,-0.205945 0.69265,-0.457656 1.01089,-0.850608 0.58215,-1.9383 -0.58858,-1.49319 -0.6008,0.228423 -1.3424,1.022589 -1.3424,1.437546 0,0.366384 0.50656,0.720407 0.85414,0.596934 0.12949,-0.046 0.30237,-0.08363 0.38419,-0.08363 z m 82.58107,64.784709 c -1.29013,-0.39697 -3.87763,-1.77053 -5.75,-3.05236 C 354.53194,152.3744 351.2,150.09404 349,148.58878 c -3.93381,-2.69156 -7.70147,-4.61218 -14.375,-7.32789 -1.85625,-0.75537 -3.375,-1.55276 -3.375,-1.77197 0,-0.77112 6.99748,-1.5904 10.6457,-1.24642 5.35578,0.50496 9.30739,1.51375 15.66071,3.99794 9.70314,3.794 17.66887,4.68613 23.44359,2.6256 1.1,-0.3925 2.62793,-0.86702 3.39541,-1.05449 l 1.39542,-0.34085 -0.752,1.4542 c -2.2778,4.40479 -8.30217,9.11511 -14.5658,11.38869 -3.71944,1.35008 -5.01483,1.41159 -8.31872,0.395 z m 7.22069,-3.23488 c 1.03125,-0.28639 1.875,-0.69018 1.875,-0.89731 0,-0.20712 -2.2509,-0.6264 -5.00201,-0.93171 -4.19865,-0.46597 -5.52641,-0.84338 -8.26721,-2.34991 -1.79586,-0.98713 -3.4141,-1.79478 -3.59608,-1.79478 -0.18198,0 0.44452,0.80722 1.39222,1.79381 3.57153,3.71815 9.11973,5.4236 13.59808,4.1799 z m -1.44552,-12.70277 c -1.41378,-0.39741 -5.08409,-1.73291 -8.15624,-2.96779 -7.03973,-2.82968 -8.83665,-3.15905 -19.26358,-3.53098 -8.73398,-0.31154 -10.32756,-0.70716 -8.50966,-2.1126 1.65829,-1.28204 6.81012,-3.56921 10,-4.43954 5.19284,-1.41681 14.88306,-1.50859 23.25,-0.22022 8.17172,1.25831 11.73718,1.14571 16.16377,-0.51049 3.38782,-1.26755 6.98385,-4.56769 9.11372,-8.36381 0.80988,-1.44347 1.64126,-2.62472 1.84751,-2.625 0.53941,-7.3e-4 0.43925,4.85448 -0.1547,7.49949 -0.84965,3.78367 -4.82406,11.25151 -7.06606,13.27703 -4.40215,3.97707 -11.46149,5.61392 -17.22476,3.99391 z m 13.14632,-7.23008 c 2.63456,-1.14726 5.10995,-3.27177 4.51055,-3.87118 -0.18385,-0.18384 -1.51598,0.26121 -2.96031,0.98901 -3.38591,1.70616 -6.87133,2.73755 -10.62604,3.14441 -5.45745,0.59136 -4.8253,1.25658 1,1.05231 4.29838,-0.15073 6.06275,-0.43793 8.0758,-1.31455 z m 6.50753,-22.37419 c -0.51487,-0.51487 -0.38878,-5.19691 0.19673,-7.30534 0.75702,-2.72599 3.00387,-5.017236 7.57987,-7.729621 4.91098,-2.910943 6.34454,-4.660594 6.84594,-8.355436 0.20715,-1.526498 0.54522,-2.944032 0.75126,-3.150076 1.23671,-1.236702 4.08214,7.255019 3.60282,10.752015 -0.69283,5.054798 -3.48009,7.776328 -10.55995,10.310988 -2.72249,0.97467 -3.9503,1.75927 -5.52705,3.53191 -2.09254,2.35251 -2.32569,2.50949 -2.88962,1.94556 z M 331.25,117.62421 c 0,-0.20669 2.61047,-3.18794 5.80104,-6.625 7.374,-7.94368 9.99823,-11.453745 10.94387,-14.638053 0.9945,-3.348849 0.94318,-5.645735 -0.25275,-11.312052 -0.54569,-2.585492 -0.99216,-5.871387 -0.99216,-7.301989 0,-3.383616 1.03108,-4.499347 6.86627,-7.429952 8.52888,-4.283462 9.6436,-6.076151 10.0877,-16.222967 0.18734,-4.280431 0.50049,-6.831434 0.8529,-6.947969 0.80928,-0.267608 4.67932,3.83716 6.57396,6.972683 3.7907,6.273392 4.55942,12.104893 2.22897,16.908986 -0.60774,1.252843 -2.89367,4.374486 -5.07984,6.936985 -5.71659,6.700663 -5.77996,6.871389 -5.77996,15.572383 0,7.229485 -0.0112,7.301985 -1.41546,9.144675 -2.03004,2.66391 -4.29378,3.95786 -11.08454,6.33591 -6.342,2.2209 -12.61953,5.16559 -16.09009,7.54761 -2.17944,1.49587 -2.65991,1.68711 -2.65991,1.05875 z m 22.68359,-17.755925 c 2.44068,-3.226275 2.78626,-7.301002 0.97474,-11.493285 -0.93827,-2.171367 -1.85995,-2.527818 -1.29286,-0.5 0.21149,0.75625 0.36692,2.95 0.34539,4.875 -0.032,2.857327 -0.30685,4.004955 -1.49713,6.25 -1.98015,3.73484 -1.96288,3.66852 -0.79191,3.04184 0.57064,-0.3054 1.58844,-1.2835 2.26177,-2.173555 z M 331.75,125.26368 c 3.38996,-3.53539 9.59395,-8.03991 12.64596,-9.18181 1.4922,-0.55831 5.38856,-1.58599 8.65857,-2.28374 11.38693,-2.42972 11.90704,-2.75189 15.01073,-9.29813 1.23864,-2.6125 2.61633,-5.493289 3.06155,-6.401754 2.3507,-4.796639 9.74323,-9.592622 16.37319,-10.622284 3.53033,-0.548277 7.75,-0.272259 7.75,0.506945 0,0.231899 -1.18763,1.09189 -2.63918,1.911092 -3.06046,1.727221 -6.12932,4.930791 -7.2193,7.536219 -0.41872,1.00088 -1.07631,5.274152 -1.46132,9.496172 -0.38501,4.22201 -0.94684,8.15951 -1.24851,8.75 -0.30167,0.59048 -1.46905,2.02986 -2.59419,3.19861 L 378.04179,121 h -17.15358 -17.15359 l -5.86731,2.93345 c -8.23362,4.11651 -8.93527,4.26909 -6.11731,1.33023 z m 43.56643,-8.79923 c 1.22831,-0.65737 3.93357,-4.82667 3.93357,-6.06234 0,-1.49675 -0.8334,-1.0238 -2.15491,1.22289 -0.68746,1.16875 -1.83384,2.67047 -2.54751,3.33716 -1.96977,1.84009 -1.51666,2.72545 0.76885,1.50229 z" />
  </g>
</svg>
