<?xml version="1.0" encoding="UTF-8" standalone="no"?>
<!-- Created with Inkscape (http://www.inkscape.org/) -->

<svg
   version="1.1"
   id="svg1"
   width="213.03903"
   height="183.87595"
   viewBox="0 0 213.03903 183.87595"
   xmlns="http://www.w3.org/2000/svg"
   xmlns:svg="http://www.w3.org/2000/svg">
  <defs
     id="defs1" />
  <g
     id="g1"
     transform="translate(19.714576,-16.173116)">
    <path
       id="path80"
       style="fill:#ff0000"
       d="m 33.531514,16.173116 -7.46289,12.757812 c -4.10521,7.017244 -9.26039,15.90977 -11.45507,19.759766 C 12.418864,52.54069 3.7982145,67.45146 -4.5446555,81.825459 l -15.1699205,26.134771 6.72852,11.57421 6.7265605,11.57422 1.80664,-2.70898 c 2.10366,-3.15353 5.7792999,-14.39388 5.7792999,-17.67383 v -2.2539 l -4.7402399,2.28515 c -2.60748,1.25669 -4.9209704,2.10442 -5.1406204,1.88477 -0.21965,-0.21965 1.1345804,-2.09875 3.0097604,-4.17578 1.87518,-2.07703 5.64598996,-7.76034 8.3789099,-12.630865 2.7329201,-4.87052 6.4040401,-10.116079 8.1581996,-11.65625 1.75416,-1.540169 3.03585,-2.955227 2.84766,-3.144531 -0.18819,-0.189303 1.50578,-0.474169 3.76562,-0.632813 2.25984,-0.158643 5.48336,-1.133339 7.16407,-2.166015 3.73312,-2.293745 10.55663,-3.723871 10.55663,-2.212891 0,0.580114 -1.25728,1.798725 -2.79492,2.707031 -8.77372,5.182766 -15.20576,28.553114 -11.09961,40.332034 1.88866,5.41778 7.91341,6.91271 11.60547,2.8789 2.48582,-2.7159 3.17428,-4.82553 3.85938,-11.8164 0.28792,-2.93809 1.00825,-5.92613 1.59961,-6.63867 1.37599,-1.65797 4.1397,-1.69282 3.54882,-0.0449 -0.87639,2.44416 1.28371,4.75 4.44922,4.75 6.3118,0 10.52383,-4.26579 25.914067,-26.234379 2.979776,-4.253507 5.924222,-7.741 6.542972,-7.75 2.24335,-0.03259 3.16454,10.77457 1.33007,15.599609 -0.57424,1.510367 -4.02036,6.147887 -7.660152,10.30469 -3.639793,4.1568 -7.499457,9.54834 -8.576177,11.98242 -1.79739,4.06331 -1.86091,5.14001 -0.76757,13.14062 0.88611,6.4843 0.9066,9.77093 0.0781,12.84766 -1.31321,4.87687 -6.26131,10.86368 -10.50977,12.71484 -2.34597,1.02221 -2.56443,1.32507 -0.98047,1.35547 4.01667,0.0771 10.87578,-4.32324 13.18946,-8.46094 1.230166,-2.19999 2.37661,-4.39495 2.546871,-4.87695 0.477077,-1.3506 8.433562,3.01045 16.550783,9.07031 10.06736,7.51573 16.335102,10.28478 23.302732,10.29688 6.83189,0.0119 11.6236,-1.86869 16.89258,-6.62891 l 3.97852,-3.59375 -0.01,2.86524 c -0.0139,4.07892 -4.09805,12.2827 -8.08789,16.24414 -1.87087,1.85756 -5.87735,4.55756 -8.90234,6 -4.78888,2.28353 -6.7283,2.61293 -15.000002,2.55273 -8.11508,-0.0591 -10.3678,-0.4632 -15.44922,-2.78125 -3.27175,-1.49251 -7.503393,-3.89972 -9.404299,-5.34961 l -3.457032,-2.63672 0.677735,4.23829 c 0.759998,4.75277 2.991755,8.68707 5.773437,10.17578 4.141839,2.21664 1.88888,3.17506 -6.390625,2.7207 -8.57327,-0.47048 -13.62739,-2.3102 -20.5,-7.46289 -2.95155,-2.21291 -3.25,-2.26671 -3.25,-0.58594 0,3.6995 5.34574,10.26977 10.20898,12.54688 2.58996,1.21268 4.72745,2.52482 4.75,2.91601 0.0225,0.39119 -2.2908,1.40369 -5.14062,2.25 -9.66504,2.87021 -18.43432,1.57108 -24.33008,-3.60547 l -3.45898,-3.03711 2.58007,5.83399 c 1.41886,3.20829 3.00564,6.62844 3.5254,7.59961 0.88786,1.65899 4.18617,1.74888 54.533204,1.50586 l 53.587892,-0.25782 11.1914,-19.5 c 6.15558,-10.72498 18.02239,-31.35895 26.3711,-45.85351 L 193.32446,107.98367 182.31665,88.837178 C 176.26217,78.306775 164.44502,57.765679 156.05689,43.190694 l -15.25196,-26.5 -53.636727,-0.259766 z M 140.00809,33.190694 c 6.17474,0 6.77807,1.213764 1.7832,3.583984 -4.18884,1.987733 -9.14542,7.686546 -9.97656,11.470703 -0.35091,1.597709 0.24323,5.078085 1.45898,8.53711 2.77322,7.890295 2.60289,9.862971 -1.19726,13.833984 -2.36028,2.466403 -5.49415,4.121587 -11.44727,6.048828 -4.50844,1.459547 -9.3049,3.525338 -10.6582,4.589844 -6.72859,5.292709 -4.56703,-0.817132 3.40234,-9.617188 5.4569,-6.025687 6.08963,-8.791509 3.45313,-15.101562 -0.825,-1.974501 -1.5,-5.346837 -1.5,-7.494141 0,-3.281709 0.70346,-4.607759 4.4082,-8.3125 5.03668,-5.036683 11.767,-7.539062 20.27344,-7.539062 z m -38.60158,7.751953 c 0.21297,-0.06929 0.48591,0.02031 0.83205,0.207031 4.65725,2.512397 10.0267,11.968281 10.0664,17.726563 0.0332,4.811331 -1.62664,8.230252 -6.54492,13.488281 -5.68613,6.078931 -6.497937,8.336777 -5.775397,16.074219 0.542477,5.809282 0.379157,6.55281 -2.08594,9.482422 -2.05135,2.437877 -4.61649,3.771827 -11.00586,5.720707 -4.58219,1.39765 -10.62238,4.11787 -13.423826,6.04492 -8.753883,6.02161 -8.020123,4.20962 2.949219,-7.26953 9.409047,-9.846342 10.643527,-13.349666 8.232427,-23.365238 -2.31115,-9.600299 -1.57227,-11.386442 6.14648,-14.849609 8.17872,-3.669548 9.930057,-6.629094 9.884767,-16.710938 -0.0212,-4.706344 0.0857,-6.340957 0.7246,-6.548828 z m 23.51955,0.248047 c -1.66091,0 -4.58244,6.849941 -4.47852,10.5 l 0.11328,4 0.7832,-4.632813 c 0.43052,-2.548233 1.55501,-5.810737 2.49805,-7.25 0.94304,-1.439261 1.43033,-2.617187 1.08399,-2.617187 z m 15.67773,37.283203 c 0.74733,0.312496 1.7123,1.87976 2.57813,4.570312 2.72944,8.481777 -0.60378,14.593374 -9.21485,16.896485 -2.89931,0.775446 -5.18224,2.147426 -6.22461,3.738286 -2.14202,3.26913 -3.38791,3.1848 -3.53125,-0.23829 -0.27921,-6.667596 1.63702,-9.930021 7.61524,-12.962887 5.26446,-2.670767 7.5,-5.366281 7.5,-9.044922 0,-2.328508 0.53001,-3.27148 1.27734,-2.958984 z m -49.783207,2.4375 c -0.14078,-0.100101 -0.05745,0.333846 0.2207,1.279297 1.14025,3.87576 0.58773,8.882214 -1.30469,11.824219 l -1.7207,2.675781 2.13672,-1.886719 c 3.02148,-2.670603 3.83065,-8.068847 1.79492,-11.96875 -0.62063,-1.18897 -0.98617,-1.823727 -1.12695,-1.923828 z m 37.525397,0.279297 c 5.66234,0 6.40411,1.167976 1.91992,3.02539 -1.68348,0.697322 -4.25361,2.831529 -5.71094,4.742188 -2.26339,2.967452 -2.72867,4.76401 -3.18945,12.330078 -0.48647,7.98787 -0.81138,9.1309 -3.31445,11.63086 l -2.77539,2.77148 H 98.051053 80.826443 l -7.250004,3.64258 c -3.987496,2.00406 -7.25,3.30302 -7.25,2.88672 0,-1.53224 10.154911,-10.19767 13.673824,-11.66796 1.99777,-0.83473 6.96327,-2.15294 11.03321,-2.93165 10.894627,-2.08448 12.085207,-3.03936 15.613287,-12.496092 3.14181,-8.421371 11.72691,-13.933594 21.69922,-13.933594 z m -110.902356,3 c -0.55,0 -1.27727,0.45 -1.61718,1 -0.33992,0.549999 -0.16914,1 0.38086,1 0.54999,0 1.27922,-0.450001 1.61914,-1 0.33991,-0.55 0.16718,-1 -0.38282,-1 z M 116.19754,103.9114 c -0.23535,-0.12479 -0.78263,0.53542 -1.41992,1.7793 -0.84537,1.65 -2.27918,3.5625 -3.18555,4.25 -0.90637,0.6875 -1.1445,1.25 -0.5293,1.25 1.52781,0 5.26541,-4.89401 5.25782,-6.88477 -8.6e-4,-0.22323 -0.0446,-0.35294 -0.12305,-0.39453 z m 13.62891,4.7793 0.30859,4.28124 c 0.21631,2.99667 -0.47297,5.98873 -2.29687,9.97266 -3.24979,7.09846 -4.9674,9.04887 -10.01172,11.36524 -5.9828,2.7473 -10.90209,2.31664 -20.500007,-1.79297 -7.9352,-3.39769 -9.21347,-3.64503 -19.24805,-3.73243 -11.393508,-0.0993 -12.433088,-0.70844 -6.810547,-3.99218 7.669747,-4.47937 19.369867,-5.59384 32.445324,-3.0918 11.61872,2.22329 18.97221,-0.55362 23.81054,-8.99219 z m -87.796886,10.58984 c -0.21211,0.0545 -0.59655,1.23646 -1.26563,3.72265 -1.75214,6.51077 -6.28906,13.30051 -11.23046,16.80079 -4.31722,3.05813 -1.20302,2.29567 3.38281,-0.82813 5.60692,-3.81936 9.4938,-11.42394 9.34375,-18.2793 -0.0211,-0.96249 -0.0853,-1.45329 -0.23047,-1.41601 z m 80.570316,4.5918 c -0.3565,0.0745 -1.21111,0.53016 -2.65625,1.38281 -2.06457,1.21813 -6.31083,2.5421 -9.43554,2.94336 l -5.68164,0.73047 4.78125,0.13086 c 5.25751,0.14415 10.43166,-1.60909 12.65429,-4.28907 0.55248,-0.66617 0.6944,-0.97291 0.33789,-0.89843 z m -46.175784,8.28125 c 5.990697,0.0106 12.807567,1.45363 18.402347,4.02734 8.592537,3.95272 17.005957,4.90536 23.460937,2.6543 2.45353,-0.85562 4.64041,-1.37718 4.85938,-1.15821 0.71688,0.71687 -3.88793,6.46301 -7.20899,8.9961 -1.78691,1.36295 -5.18776,3.16225 -7.55664,3.99804 -2.36887,0.83579 -4.58633,1.47232 -4.92968,1.41602 -6.176497,-1.01275 -7.229687,-1.54262 -15.546887,-7.83789 -3.38246,-2.56017 -9.06019,-5.71525 -12.615233,-7.01172 -8.3343,-3.0394 -9.033374,-3.75573 -4.503906,-4.60547 1.737752,-0.326 3.641772,-0.48205 5.638672,-0.47851 z m 15.402347,9.85156 2.1289,2.19336 c 1.17118,1.20694 3.64618,2.55242 5.5,2.99023 4.196717,0.99109 4.778497,0.99238 7.871107,0.002 1.93764,-0.62053 1.26282,-0.82409 -3,-0.90429 -3.64539,-0.0685 -6.680227,-0.80874 -9.000007,-2.19336 z m -42.267579,23.20508 c -0.13393,-0.001 -0.23243,0.3782 -0.23243,0.96875 0,0.72683 1.81786,3.05117 4.04102,5.16601 5.58875,5.31645 6.09399,4.81846 0.91602,-0.9043 -2.3638,-2.61249 -4.44571,-4.93684 -4.62696,-5.16601 -0.034,-0.043 -0.0667,-0.0641 -0.0977,-0.0644 z m 60.123056,2.31836 c -0.61938,-0.007 -1.77522,0.26869 -2.9668,0.73437 -3.38787,1.32402 -13.797307,1.60446 -17.388677,0.46875 -1.375,-0.43478 -2.18537,-0.45591 -1.80078,-0.0488 0.38458,0.40708 2.18459,1.11643 4,1.57617 5.35646,1.35648 20.429597,-0.77352 18.578127,-2.625 -0.0687,-0.0687 -0.21542,-0.10303 -0.42187,-0.10546 z m -80.679696,9.1621 2.20117,3.20899 c 2.1563,3.1436 6.13832,6.44682 9.12304,7.56836 3.30912,1.24343 3.30912,0.60085 0,-1.37891 -1.92499,-1.15167 -5.26038,-3.73732 -7.4121,-5.74609 z" />
  </g>
</svg>
